<mxfile host="app.diagrams.net" modified="2024-02-03T13:50:07.226Z" agent="Mozilla/5.0 (X11; Linux x86_64; rv:121.0) Gecko/20100101 Firefox/121.0" etag="TcPeQ6nKLf5iU71ejcrC" version="23.1.1" type="device">
  <diagram name="Page-1" id="N7cz31c8sJfuYnLjjP13">
    <mxGraphModel dx="2397" dy="868" grid="1" gridSize="10" guides="1" tooltips="1" connect="1" arrows="1" fold="1" page="1" pageScale="1" pageWidth="827" pageHeight="1169" math="0" shadow="0">
      <root>
        <mxCell id="0" />
        <mxCell id="1" parent="0" />
        <mxCell id="jk0r-prxaw-WUlgDrGdM-3" style="edgeStyle=orthogonalEdgeStyle;rounded=0;orthogonalLoop=1;jettySize=auto;html=1;exitX=1;exitY=0.5;exitDx=0;exitDy=0;entryX=0;entryY=0.5;entryDx=0;entryDy=0;curved=1;endArrow=none;endFill=0;fontSize=8;fillColor=#e1d5e7;strokeColor=#9673a6;" parent="1" source="jk0r-prxaw-WUlgDrGdM-1" target="jk0r-prxaw-WUlgDrGdM-2" edge="1">
          <mxGeometry relative="1" as="geometry" />
        </mxCell>
        <mxCell id="jk0r-prxaw-WUlgDrGdM-11" style="edgeStyle=orthogonalEdgeStyle;rounded=0;orthogonalLoop=1;jettySize=auto;html=1;exitX=1;exitY=0.5;exitDx=0;exitDy=0;entryX=0;entryY=0.5;entryDx=0;entryDy=0;endArrow=none;endFill=0;curved=1;fontSize=8;fillColor=#ffe6cc;strokeColor=#d79b00;" parent="1" source="jk0r-prxaw-WUlgDrGdM-1" target="jk0r-prxaw-WUlgDrGdM-7" edge="1">
          <mxGeometry relative="1" as="geometry" />
        </mxCell>
        <mxCell id="jk0r-prxaw-WUlgDrGdM-12" style="edgeStyle=orthogonalEdgeStyle;rounded=0;orthogonalLoop=1;jettySize=auto;html=1;exitX=1;exitY=0.5;exitDx=0;exitDy=0;entryX=0;entryY=0.5;entryDx=0;entryDy=0;endArrow=none;endFill=0;curved=1;fontSize=8;fillColor=#f5f5f5;strokeColor=#666666;" parent="1" source="jk0r-prxaw-WUlgDrGdM-1" target="jk0r-prxaw-WUlgDrGdM-8" edge="1">
          <mxGeometry relative="1" as="geometry" />
        </mxCell>
        <mxCell id="jk0r-prxaw-WUlgDrGdM-13" style="edgeStyle=orthogonalEdgeStyle;rounded=0;orthogonalLoop=1;jettySize=auto;html=1;exitX=1;exitY=0.5;exitDx=0;exitDy=0;entryX=0;entryY=0.5;entryDx=0;entryDy=0;endArrow=none;endFill=0;curved=1;fontSize=8;fillColor=#f8cecc;strokeColor=#b85450;" parent="1" source="jk0r-prxaw-WUlgDrGdM-1" target="jk0r-prxaw-WUlgDrGdM-9" edge="1">
          <mxGeometry relative="1" as="geometry" />
        </mxCell>
        <mxCell id="jk0r-prxaw-WUlgDrGdM-14" style="edgeStyle=orthogonalEdgeStyle;rounded=0;orthogonalLoop=1;jettySize=auto;html=1;exitX=1;exitY=0.5;exitDx=0;exitDy=0;entryX=0;entryY=0.5;entryDx=0;entryDy=0;endArrow=none;endFill=0;curved=1;fontSize=8;fillColor=#dae8fc;strokeColor=#6c8ebf;" parent="1" source="jk0r-prxaw-WUlgDrGdM-1" target="jk0r-prxaw-WUlgDrGdM-10" edge="1">
          <mxGeometry relative="1" as="geometry" />
        </mxCell>
        <mxCell id="jk0r-prxaw-WUlgDrGdM-1" value="owl:Thing" style="rounded=1;whiteSpace=wrap;html=1;fontSize=8;fillColor=#f5f5f5;fontColor=#333333;strokeColor=#666666;" parent="1" vertex="1">
          <mxGeometry x="-810" y="540" width="80" height="20" as="geometry" />
        </mxCell>
        <mxCell id="jk0r-prxaw-WUlgDrGdM-104" style="edgeStyle=orthogonalEdgeStyle;rounded=0;orthogonalLoop=1;jettySize=auto;html=1;exitX=1;exitY=0.5;exitDx=0;exitDy=0;entryX=0;entryY=0.5;entryDx=0;entryDy=0;curved=1;endArrow=none;endFill=0;fillColor=#d5e8d4;strokeColor=#82b366;" parent="1" source="jk0r-prxaw-WUlgDrGdM-2" target="jk0r-prxaw-WUlgDrGdM-21" edge="1">
          <mxGeometry relative="1" as="geometry" />
        </mxCell>
        <mxCell id="jk0r-prxaw-WUlgDrGdM-105" style="edgeStyle=orthogonalEdgeStyle;rounded=0;orthogonalLoop=1;jettySize=auto;html=1;exitX=1;exitY=0.5;exitDx=0;exitDy=0;entryX=0;entryY=0.5;entryDx=0;entryDy=0;endArrow=none;endFill=0;curved=1;fillColor=#e1d5e7;strokeColor=#9673a6;" parent="1" source="jk0r-prxaw-WUlgDrGdM-2" target="jk0r-prxaw-WUlgDrGdM-15" edge="1">
          <mxGeometry relative="1" as="geometry" />
        </mxCell>
        <mxCell id="jk0r-prxaw-WUlgDrGdM-2" value="Biological Entity" style="rounded=1;whiteSpace=wrap;html=1;fontSize=8;fillColor=#e1d5e7;strokeColor=#9673a6;" parent="1" vertex="1">
          <mxGeometry x="-680" width="80" height="20" as="geometry" />
        </mxCell>
        <mxCell id="jk0r-prxaw-WUlgDrGdM-5" style="edgeStyle=orthogonalEdgeStyle;rounded=0;orthogonalLoop=1;jettySize=auto;html=1;exitX=0;exitY=0.5;exitDx=0;exitDy=0;entryX=1;entryY=0.5;entryDx=0;entryDy=0;endArrow=none;endFill=0;curved=1;fontSize=8;fillColor=#fff2cc;strokeColor=#d6b656;" parent="1" source="jk0r-prxaw-WUlgDrGdM-4" target="jk0r-prxaw-WUlgDrGdM-1" edge="1">
          <mxGeometry relative="1" as="geometry" />
        </mxCell>
        <mxCell id="jk0r-prxaw-WUlgDrGdM-124" style="edgeStyle=orthogonalEdgeStyle;rounded=0;orthogonalLoop=1;jettySize=auto;html=1;exitX=1;exitY=0.5;exitDx=0;exitDy=0;entryX=0;entryY=0.5;entryDx=0;entryDy=0;endArrow=none;endFill=0;curved=1;fillColor=#fff2cc;strokeColor=#d6b656;" parent="1" source="jk0r-prxaw-WUlgDrGdM-4" target="jk0r-prxaw-WUlgDrGdM-71" edge="1">
          <mxGeometry relative="1" as="geometry" />
        </mxCell>
        <mxCell id="jk0r-prxaw-WUlgDrGdM-125" style="edgeStyle=orthogonalEdgeStyle;rounded=0;orthogonalLoop=1;jettySize=auto;html=1;exitX=1;exitY=0.5;exitDx=0;exitDy=0;entryX=0;entryY=0.5;entryDx=0;entryDy=0;endArrow=none;endFill=0;curved=1;fillColor=#fff2cc;strokeColor=#d6b656;" parent="1" source="jk0r-prxaw-WUlgDrGdM-4" target="jk0r-prxaw-WUlgDrGdM-72" edge="1">
          <mxGeometry relative="1" as="geometry" />
        </mxCell>
        <mxCell id="jk0r-prxaw-WUlgDrGdM-4" value="Collection" style="rounded=1;whiteSpace=wrap;html=1;fontSize=8;fillColor=#fff2cc;strokeColor=#d6b656;" parent="1" vertex="1">
          <mxGeometry x="-680" y="400" width="80" height="20" as="geometry" />
        </mxCell>
        <mxCell id="jk0r-prxaw-WUlgDrGdM-140" style="edgeStyle=orthogonalEdgeStyle;rounded=0;orthogonalLoop=1;jettySize=auto;html=1;exitX=1;exitY=0.5;exitDx=0;exitDy=0;entryX=0;entryY=0.5;entryDx=0;entryDy=0;endArrow=none;endFill=0;curved=1;fillColor=#ffe6cc;strokeColor=#d79b00;" parent="1" source="jk0r-prxaw-WUlgDrGdM-7" target="jk0r-prxaw-WUlgDrGdM-73" edge="1">
          <mxGeometry relative="1" as="geometry" />
        </mxCell>
        <mxCell id="jk0r-prxaw-WUlgDrGdM-141" style="edgeStyle=orthogonalEdgeStyle;rounded=0;orthogonalLoop=1;jettySize=auto;html=1;exitX=1;exitY=0.5;exitDx=0;exitDy=0;entryX=0;entryY=0.5;entryDx=0;entryDy=0;strokeColor=#d79b00;endArrow=none;endFill=0;curved=1;fillColor=#ffe6cc;" parent="1" source="jk0r-prxaw-WUlgDrGdM-7" target="jk0r-prxaw-WUlgDrGdM-74" edge="1">
          <mxGeometry relative="1" as="geometry" />
        </mxCell>
        <mxCell id="jk0r-prxaw-WUlgDrGdM-142" style="edgeStyle=orthogonalEdgeStyle;rounded=0;orthogonalLoop=1;jettySize=auto;html=1;exitX=1;exitY=0.5;exitDx=0;exitDy=0;entryX=0;entryY=0.5;entryDx=0;entryDy=0;endArrow=none;endFill=0;curved=1;fillColor=#ffe6cc;strokeColor=#d79b00;" parent="1" source="jk0r-prxaw-WUlgDrGdM-7" target="jk0r-prxaw-WUlgDrGdM-75" edge="1">
          <mxGeometry relative="1" as="geometry" />
        </mxCell>
        <mxCell id="jk0r-prxaw-WUlgDrGdM-143" style="edgeStyle=orthogonalEdgeStyle;rounded=0;orthogonalLoop=1;jettySize=auto;html=1;exitX=1;exitY=0.5;exitDx=0;exitDy=0;entryX=0;entryY=0.5;entryDx=0;entryDy=0;endArrow=none;endFill=0;curved=1;fillColor=#ffe6cc;strokeColor=#d79b00;" parent="1" source="jk0r-prxaw-WUlgDrGdM-7" target="jk0r-prxaw-WUlgDrGdM-76" edge="1">
          <mxGeometry relative="1" as="geometry" />
        </mxCell>
        <mxCell id="jk0r-prxaw-WUlgDrGdM-144" style="edgeStyle=orthogonalEdgeStyle;rounded=0;orthogonalLoop=1;jettySize=auto;html=1;exitX=1;exitY=0.5;exitDx=0;exitDy=0;entryX=0;entryY=0.5;entryDx=0;entryDy=0;endArrow=none;endFill=0;curved=1;fillColor=#ffe6cc;strokeColor=#d79b00;" parent="1" source="jk0r-prxaw-WUlgDrGdM-7" target="jk0r-prxaw-WUlgDrGdM-77" edge="1">
          <mxGeometry relative="1" as="geometry" />
        </mxCell>
        <mxCell id="jk0r-prxaw-WUlgDrGdM-145" style="edgeStyle=orthogonalEdgeStyle;rounded=0;orthogonalLoop=1;jettySize=auto;html=1;exitX=1;exitY=0.5;exitDx=0;exitDy=0;entryX=0;entryY=0.5;entryDx=0;entryDy=0;endArrow=none;endFill=0;curved=1;fillColor=#ffe6cc;strokeColor=#d79b00;" parent="1" source="jk0r-prxaw-WUlgDrGdM-7" target="jk0r-prxaw-WUlgDrGdM-78" edge="1">
          <mxGeometry relative="1" as="geometry" />
        </mxCell>
        <mxCell id="jk0r-prxaw-WUlgDrGdM-146" style="edgeStyle=orthogonalEdgeStyle;rounded=0;orthogonalLoop=1;jettySize=auto;html=1;exitX=1;exitY=0.5;exitDx=0;exitDy=0;entryX=0;entryY=0.5;entryDx=0;entryDy=0;endArrow=none;endFill=0;curved=1;fillColor=#ffe6cc;strokeColor=#d79b00;" parent="1" source="jk0r-prxaw-WUlgDrGdM-7" target="jk0r-prxaw-WUlgDrGdM-79" edge="1">
          <mxGeometry relative="1" as="geometry" />
        </mxCell>
        <mxCell id="jk0r-prxaw-WUlgDrGdM-147" style="edgeStyle=orthogonalEdgeStyle;rounded=0;orthogonalLoop=1;jettySize=auto;html=1;exitX=1;exitY=0.5;exitDx=0;exitDy=0;entryX=0;entryY=0.5;entryDx=0;entryDy=0;endArrow=none;endFill=0;curved=1;fillColor=#ffe6cc;strokeColor=#d79b00;" parent="1" source="jk0r-prxaw-WUlgDrGdM-7" target="jk0r-prxaw-WUlgDrGdM-80" edge="1">
          <mxGeometry relative="1" as="geometry" />
        </mxCell>
        <mxCell id="jk0r-prxaw-WUlgDrGdM-148" style="edgeStyle=orthogonalEdgeStyle;rounded=0;orthogonalLoop=1;jettySize=auto;html=1;exitX=1;exitY=0.5;exitDx=0;exitDy=0;entryX=0;entryY=0.5;entryDx=0;entryDy=0;endArrow=none;endFill=0;curved=1;fillColor=#ffe6cc;strokeColor=#d79b00;" parent="1" source="jk0r-prxaw-WUlgDrGdM-7" target="jk0r-prxaw-WUlgDrGdM-81" edge="1">
          <mxGeometry relative="1" as="geometry" />
        </mxCell>
        <mxCell id="jk0r-prxaw-WUlgDrGdM-149" style="edgeStyle=orthogonalEdgeStyle;rounded=0;orthogonalLoop=1;jettySize=auto;html=1;exitX=1;exitY=0.5;exitDx=0;exitDy=0;entryX=0;entryY=0.5;entryDx=0;entryDy=0;endArrow=none;endFill=0;curved=1;fillColor=#ffe6cc;strokeColor=#d79b00;" parent="1" source="jk0r-prxaw-WUlgDrGdM-7" target="jk0r-prxaw-WUlgDrGdM-83" edge="1">
          <mxGeometry relative="1" as="geometry" />
        </mxCell>
        <mxCell id="jk0r-prxaw-WUlgDrGdM-150" style="edgeStyle=orthogonalEdgeStyle;rounded=0;orthogonalLoop=1;jettySize=auto;html=1;exitX=1;exitY=0.5;exitDx=0;exitDy=0;entryX=0;entryY=0.5;entryDx=0;entryDy=0;endArrow=none;endFill=0;curved=1;fillColor=#ffe6cc;strokeColor=#d79b00;" parent="1" source="jk0r-prxaw-WUlgDrGdM-7" target="jk0r-prxaw-WUlgDrGdM-84" edge="1">
          <mxGeometry relative="1" as="geometry" />
        </mxCell>
        <mxCell id="jk0r-prxaw-WUlgDrGdM-151" style="edgeStyle=orthogonalEdgeStyle;rounded=0;orthogonalLoop=1;jettySize=auto;html=1;exitX=1;exitY=0.5;exitDx=0;exitDy=0;entryX=0;entryY=0.5;entryDx=0;entryDy=0;endArrow=none;endFill=0;curved=1;fillColor=#ffe6cc;strokeColor=#d79b00;" parent="1" source="jk0r-prxaw-WUlgDrGdM-7" target="jk0r-prxaw-WUlgDrGdM-85" edge="1">
          <mxGeometry relative="1" as="geometry" />
        </mxCell>
        <mxCell id="jk0r-prxaw-WUlgDrGdM-152" style="edgeStyle=orthogonalEdgeStyle;rounded=0;orthogonalLoop=1;jettySize=auto;html=1;exitX=1;exitY=0.5;exitDx=0;exitDy=0;entryX=0;entryY=0.5;entryDx=0;entryDy=0;endArrow=none;endFill=0;curved=1;fillColor=#ffe6cc;strokeColor=#d79b00;" parent="1" source="jk0r-prxaw-WUlgDrGdM-7" target="jk0r-prxaw-WUlgDrGdM-86" edge="1">
          <mxGeometry relative="1" as="geometry" />
        </mxCell>
        <mxCell id="jk0r-prxaw-WUlgDrGdM-153" style="edgeStyle=orthogonalEdgeStyle;rounded=0;orthogonalLoop=1;jettySize=auto;html=1;exitX=1;exitY=0.5;exitDx=0;exitDy=0;entryX=0;entryY=0.5;entryDx=0;entryDy=0;endArrow=none;endFill=0;curved=1;fillColor=#ffe6cc;strokeColor=#d79b00;" parent="1" source="jk0r-prxaw-WUlgDrGdM-7" target="jk0r-prxaw-WUlgDrGdM-87" edge="1">
          <mxGeometry relative="1" as="geometry" />
        </mxCell>
        <mxCell id="jk0r-prxaw-WUlgDrGdM-154" style="edgeStyle=orthogonalEdgeStyle;rounded=0;orthogonalLoop=1;jettySize=auto;html=1;exitX=1;exitY=0.5;exitDx=0;exitDy=0;entryX=0;entryY=0.5;entryDx=0;entryDy=0;endArrow=none;endFill=0;curved=1;fillColor=#ffe6cc;strokeColor=#d79b00;" parent="1" source="jk0r-prxaw-WUlgDrGdM-7" target="jk0r-prxaw-WUlgDrGdM-88" edge="1">
          <mxGeometry relative="1" as="geometry" />
        </mxCell>
        <mxCell id="jk0r-prxaw-WUlgDrGdM-7" value="&lt;div style=&quot;font-size: 8px;&quot;&gt;Disease&lt;/div&gt;&lt;div style=&quot;font-size: 8px;&quot;&gt;Symptom&lt;br style=&quot;font-size: 8px;&quot;&gt;&lt;/div&gt;" style="rounded=1;whiteSpace=wrap;html=1;fontSize=8;fillColor=#ffe6cc;strokeColor=#d79b00;" parent="1" vertex="1">
          <mxGeometry x="-680" y="540" width="80" height="20" as="geometry" />
        </mxCell>
        <mxCell id="jk0r-prxaw-WUlgDrGdM-178" style="edgeStyle=orthogonalEdgeStyle;rounded=0;orthogonalLoop=1;jettySize=auto;html=1;exitX=1;exitY=0.5;exitDx=0;exitDy=0;entryX=0;entryY=0.5;entryDx=0;entryDy=0;endArrow=none;endFill=0;curved=1;fillColor=#f5f5f5;strokeColor=#666666;" parent="1" source="jk0r-prxaw-WUlgDrGdM-8" target="jk0r-prxaw-WUlgDrGdM-137" edge="1">
          <mxGeometry relative="1" as="geometry" />
        </mxCell>
        <mxCell id="jk0r-prxaw-WUlgDrGdM-8" value="Event" style="rounded=1;whiteSpace=wrap;html=1;fontSize=8;fillColor=#f5f5f5;fontColor=#333333;strokeColor=#666666;" parent="1" vertex="1">
          <mxGeometry x="-680" y="1010" width="80" height="20" as="geometry" />
        </mxCell>
        <mxCell id="jk0r-prxaw-WUlgDrGdM-179" style="edgeStyle=orthogonalEdgeStyle;rounded=0;orthogonalLoop=1;jettySize=auto;html=1;exitX=1;exitY=0.5;exitDx=0;exitDy=0;entryX=0;entryY=0.5;entryDx=0;entryDy=0;endArrow=none;endFill=0;curved=1;fillColor=#f8cecc;strokeColor=#b85450;" parent="1" source="jk0r-prxaw-WUlgDrGdM-9" target="jk0r-prxaw-WUlgDrGdM-89" edge="1">
          <mxGeometry relative="1" as="geometry" />
        </mxCell>
        <mxCell id="jk0r-prxaw-WUlgDrGdM-180" style="edgeStyle=orthogonalEdgeStyle;rounded=0;orthogonalLoop=1;jettySize=auto;html=1;exitX=1;exitY=0.5;exitDx=0;exitDy=0;entryX=0;entryY=0.5;entryDx=0;entryDy=0;endArrow=none;endFill=0;curved=1;fillColor=#f8cecc;strokeColor=#b85450;" parent="1" source="jk0r-prxaw-WUlgDrGdM-9" target="jk0r-prxaw-WUlgDrGdM-90" edge="1">
          <mxGeometry relative="1" as="geometry" />
        </mxCell>
        <mxCell id="jk0r-prxaw-WUlgDrGdM-9" value="&lt;div style=&quot;font-size: 8px;&quot;&gt;Geographical&lt;/div&gt;&lt;div style=&quot;font-size: 8px;&quot;&gt;Entity&lt;br style=&quot;font-size: 8px;&quot;&gt;&lt;/div&gt;" style="rounded=1;whiteSpace=wrap;html=1;fontSize=8;fillColor=#f8cecc;strokeColor=#b85450;" parent="1" vertex="1">
          <mxGeometry x="-680" y="1070" width="80" height="20" as="geometry" />
        </mxCell>
        <mxCell id="jk0r-prxaw-WUlgDrGdM-10" value="Plant Part" style="rounded=1;whiteSpace=wrap;html=1;fontSize=8;fillColor=#dae8fc;strokeColor=#6c8ebf;" parent="1" vertex="1">
          <mxGeometry x="-680" y="1129" width="80" height="20" as="geometry" />
        </mxCell>
        <mxCell id="jk0r-prxaw-WUlgDrGdM-126" style="edgeStyle=orthogonalEdgeStyle;rounded=0;orthogonalLoop=1;jettySize=auto;html=1;exitX=1;exitY=0.5;exitDx=0;exitDy=0;entryX=0;entryY=0.5;entryDx=0;entryDy=0;endArrow=none;endFill=0;curved=1;fillColor=#e1d5e7;strokeColor=#9673a6;" parent="1" source="jk0r-prxaw-WUlgDrGdM-15" target="jk0r-prxaw-WUlgDrGdM-60" edge="1">
          <mxGeometry relative="1" as="geometry" />
        </mxCell>
        <mxCell id="jk0r-prxaw-WUlgDrGdM-127" style="edgeStyle=orthogonalEdgeStyle;rounded=0;orthogonalLoop=1;jettySize=auto;html=1;exitX=1;exitY=0.5;exitDx=0;exitDy=0;entryX=0;entryY=0.5;entryDx=0;entryDy=0;curved=1;endArrow=none;endFill=0;fillColor=#e1d5e7;strokeColor=#9673a6;" parent="1" source="jk0r-prxaw-WUlgDrGdM-15" target="jk0r-prxaw-WUlgDrGdM-61" edge="1">
          <mxGeometry relative="1" as="geometry" />
        </mxCell>
        <mxCell id="jk0r-prxaw-WUlgDrGdM-128" style="edgeStyle=orthogonalEdgeStyle;rounded=0;orthogonalLoop=1;jettySize=auto;html=1;exitX=1;exitY=0.5;exitDx=0;exitDy=0;entryX=0;entryY=0.5;entryDx=0;entryDy=0;curved=1;endArrow=none;endFill=0;fillColor=#e1d5e7;strokeColor=#9673a6;" parent="1" source="jk0r-prxaw-WUlgDrGdM-15" target="jk0r-prxaw-WUlgDrGdM-62" edge="1">
          <mxGeometry relative="1" as="geometry" />
        </mxCell>
        <mxCell id="jk0r-prxaw-WUlgDrGdM-129" style="edgeStyle=orthogonalEdgeStyle;rounded=0;orthogonalLoop=1;jettySize=auto;html=1;exitX=1;exitY=0.5;exitDx=0;exitDy=0;entryX=0;entryY=0.5;entryDx=0;entryDy=0;endArrow=none;endFill=0;curved=1;fillColor=#e1d5e7;strokeColor=#9673a6;" parent="1" source="jk0r-prxaw-WUlgDrGdM-15" target="jk0r-prxaw-WUlgDrGdM-63" edge="1">
          <mxGeometry relative="1" as="geometry" />
        </mxCell>
        <mxCell id="jk0r-prxaw-WUlgDrGdM-130" style="edgeStyle=orthogonalEdgeStyle;rounded=0;orthogonalLoop=1;jettySize=auto;html=1;exitX=1;exitY=0.5;exitDx=0;exitDy=0;entryX=0;entryY=0.5;entryDx=0;entryDy=0;endArrow=none;endFill=0;curved=1;fillColor=#e1d5e7;strokeColor=#9673a6;" parent="1" source="jk0r-prxaw-WUlgDrGdM-15" target="jk0r-prxaw-WUlgDrGdM-64" edge="1">
          <mxGeometry relative="1" as="geometry" />
        </mxCell>
        <mxCell id="jk0r-prxaw-WUlgDrGdM-131" style="edgeStyle=orthogonalEdgeStyle;rounded=0;orthogonalLoop=1;jettySize=auto;html=1;exitX=1;exitY=0.5;exitDx=0;exitDy=0;entryX=0;entryY=0.5;entryDx=0;entryDy=0;endArrow=none;endFill=0;curved=1;fillColor=#e1d5e7;strokeColor=#9673a6;" parent="1" source="jk0r-prxaw-WUlgDrGdM-15" target="jk0r-prxaw-WUlgDrGdM-65" edge="1">
          <mxGeometry relative="1" as="geometry" />
        </mxCell>
        <mxCell id="jk0r-prxaw-WUlgDrGdM-132" style="edgeStyle=orthogonalEdgeStyle;rounded=0;orthogonalLoop=1;jettySize=auto;html=1;exitX=1;exitY=0.5;exitDx=0;exitDy=0;entryX=0;entryY=0.5;entryDx=0;entryDy=0;endArrow=none;endFill=0;curved=1;fillColor=#e1d5e7;strokeColor=#9673a6;" parent="1" source="jk0r-prxaw-WUlgDrGdM-15" target="jk0r-prxaw-WUlgDrGdM-66" edge="1">
          <mxGeometry relative="1" as="geometry" />
        </mxCell>
        <mxCell id="jk0r-prxaw-WUlgDrGdM-135" style="edgeStyle=orthogonalEdgeStyle;rounded=0;orthogonalLoop=1;jettySize=auto;html=1;exitX=1;exitY=0.5;exitDx=0;exitDy=0;entryX=0;entryY=0.5;entryDx=0;entryDy=0;endArrow=none;endFill=0;curved=1;fillColor=#e1d5e7;strokeColor=#9673a6;" parent="1" source="jk0r-prxaw-WUlgDrGdM-15" target="jk0r-prxaw-WUlgDrGdM-67" edge="1">
          <mxGeometry relative="1" as="geometry" />
        </mxCell>
        <mxCell id="jk0r-prxaw-WUlgDrGdM-136" style="edgeStyle=orthogonalEdgeStyle;rounded=0;orthogonalLoop=1;jettySize=auto;html=1;exitX=1;exitY=0.5;exitDx=0;exitDy=0;entryX=0;entryY=0.5;entryDx=0;entryDy=0;endArrow=none;endFill=0;curved=1;fillColor=#e1d5e7;strokeColor=#9673a6;" parent="1" source="jk0r-prxaw-WUlgDrGdM-15" target="jk0r-prxaw-WUlgDrGdM-68" edge="1">
          <mxGeometry relative="1" as="geometry" />
        </mxCell>
        <mxCell id="jk0r-prxaw-WUlgDrGdM-15" value="Pathogen" style="rounded=1;whiteSpace=wrap;html=1;fontSize=8;fillColor=#e1d5e7;strokeColor=#9673a6;" parent="1" vertex="1">
          <mxGeometry x="-560" width="80" height="20" as="geometry" />
        </mxCell>
        <mxCell id="jk0r-prxaw-WUlgDrGdM-106" style="edgeStyle=orthogonalEdgeStyle;rounded=0;orthogonalLoop=1;jettySize=auto;html=1;exitX=1;exitY=0.5;exitDx=0;exitDy=0;entryX=0;entryY=0.5;entryDx=0;entryDy=0;endArrow=none;endFill=0;curved=1;fillColor=#d5e8d4;strokeColor=#82b366;" parent="1" source="jk0r-prxaw-WUlgDrGdM-21" target="jk0r-prxaw-WUlgDrGdM-22" edge="1">
          <mxGeometry relative="1" as="geometry" />
        </mxCell>
        <mxCell id="jk0r-prxaw-WUlgDrGdM-107" style="edgeStyle=orthogonalEdgeStyle;rounded=0;orthogonalLoop=1;jettySize=auto;html=1;exitX=1;exitY=0.5;exitDx=0;exitDy=0;entryX=0;entryY=0.5;entryDx=0;entryDy=0;endArrow=none;endFill=0;curved=1;fillColor=#d5e8d4;strokeColor=#82b366;" parent="1" source="jk0r-prxaw-WUlgDrGdM-21" target="jk0r-prxaw-WUlgDrGdM-23" edge="1">
          <mxGeometry relative="1" as="geometry" />
        </mxCell>
        <mxCell id="jk0r-prxaw-WUlgDrGdM-108" style="edgeStyle=orthogonalEdgeStyle;rounded=0;orthogonalLoop=1;jettySize=auto;html=1;exitX=1;exitY=0.5;exitDx=0;exitDy=0;entryX=0;entryY=0.5;entryDx=0;entryDy=0;endArrow=none;endFill=0;curved=1;fillColor=#d5e8d4;strokeColor=#82b366;" parent="1" source="jk0r-prxaw-WUlgDrGdM-21" target="jk0r-prxaw-WUlgDrGdM-24" edge="1">
          <mxGeometry relative="1" as="geometry" />
        </mxCell>
        <mxCell id="jk0r-prxaw-WUlgDrGdM-109" style="edgeStyle=orthogonalEdgeStyle;rounded=0;orthogonalLoop=1;jettySize=auto;html=1;exitX=1;exitY=0.5;exitDx=0;exitDy=0;entryX=0;entryY=0.5;entryDx=0;entryDy=0;endArrow=none;endFill=0;curved=1;fillColor=#d5e8d4;strokeColor=#82b366;" parent="1" source="jk0r-prxaw-WUlgDrGdM-21" target="jk0r-prxaw-WUlgDrGdM-25" edge="1">
          <mxGeometry relative="1" as="geometry" />
        </mxCell>
        <mxCell id="jk0r-prxaw-WUlgDrGdM-110" style="edgeStyle=orthogonalEdgeStyle;rounded=0;orthogonalLoop=1;jettySize=auto;html=1;exitX=1;exitY=0.5;exitDx=0;exitDy=0;entryX=0;entryY=0.5;entryDx=0;entryDy=0;endArrow=none;endFill=0;curved=1;fillColor=#d5e8d4;strokeColor=#82b366;" parent="1" source="jk0r-prxaw-WUlgDrGdM-21" target="jk0r-prxaw-WUlgDrGdM-26" edge="1">
          <mxGeometry relative="1" as="geometry" />
        </mxCell>
        <mxCell id="jk0r-prxaw-WUlgDrGdM-112" style="edgeStyle=orthogonalEdgeStyle;rounded=0;orthogonalLoop=1;jettySize=auto;html=1;exitX=1;exitY=0.5;exitDx=0;exitDy=0;entryX=0;entryY=0.5;entryDx=0;entryDy=0;endArrow=none;endFill=0;curved=1;fillColor=#d5e8d4;strokeColor=#82b366;" parent="1" source="jk0r-prxaw-WUlgDrGdM-21" target="jk0r-prxaw-WUlgDrGdM-27" edge="1">
          <mxGeometry relative="1" as="geometry" />
        </mxCell>
        <mxCell id="jk0r-prxaw-WUlgDrGdM-113" style="edgeStyle=orthogonalEdgeStyle;rounded=0;orthogonalLoop=1;jettySize=auto;html=1;exitX=1;exitY=0.5;exitDx=0;exitDy=0;entryX=0;entryY=0.5;entryDx=0;entryDy=0;endArrow=none;endFill=0;curved=1;fillColor=#d5e8d4;strokeColor=#82b366;" parent="1" source="jk0r-prxaw-WUlgDrGdM-21" target="jk0r-prxaw-WUlgDrGdM-28" edge="1">
          <mxGeometry relative="1" as="geometry" />
        </mxCell>
        <mxCell id="jk0r-prxaw-WUlgDrGdM-114" style="edgeStyle=orthogonalEdgeStyle;rounded=0;orthogonalLoop=1;jettySize=auto;html=1;exitX=1;exitY=0.5;exitDx=0;exitDy=0;entryX=0;entryY=0.5;entryDx=0;entryDy=0;endArrow=none;endFill=0;curved=1;fillColor=#d5e8d4;strokeColor=#82b366;" parent="1" source="jk0r-prxaw-WUlgDrGdM-21" target="jk0r-prxaw-WUlgDrGdM-29" edge="1">
          <mxGeometry relative="1" as="geometry" />
        </mxCell>
        <mxCell id="jk0r-prxaw-WUlgDrGdM-115" style="edgeStyle=orthogonalEdgeStyle;rounded=0;orthogonalLoop=1;jettySize=auto;html=1;exitX=1;exitY=0.5;exitDx=0;exitDy=0;entryX=0;entryY=0.5;entryDx=0;entryDy=0;endArrow=none;endFill=0;curved=1;fillColor=#d5e8d4;strokeColor=#82b366;" parent="1" source="jk0r-prxaw-WUlgDrGdM-21" target="jk0r-prxaw-WUlgDrGdM-30" edge="1">
          <mxGeometry relative="1" as="geometry" />
        </mxCell>
        <mxCell id="jk0r-prxaw-WUlgDrGdM-116" style="edgeStyle=orthogonalEdgeStyle;rounded=0;orthogonalLoop=1;jettySize=auto;html=1;exitX=1;exitY=0.5;exitDx=0;exitDy=0;entryX=0;entryY=0.5;entryDx=0;entryDy=0;endArrow=none;endFill=0;curved=1;fillColor=#d5e8d4;strokeColor=#82b366;" parent="1" source="jk0r-prxaw-WUlgDrGdM-21" target="jk0r-prxaw-WUlgDrGdM-31" edge="1">
          <mxGeometry relative="1" as="geometry" />
        </mxCell>
        <mxCell id="jk0r-prxaw-WUlgDrGdM-117" style="edgeStyle=orthogonalEdgeStyle;rounded=0;orthogonalLoop=1;jettySize=auto;html=1;exitX=1;exitY=0.5;exitDx=0;exitDy=0;entryX=0;entryY=0.5;entryDx=0;entryDy=0;endArrow=none;endFill=0;curved=1;fillColor=#d5e8d4;strokeColor=#82b366;" parent="1" source="jk0r-prxaw-WUlgDrGdM-21" target="jk0r-prxaw-WUlgDrGdM-32" edge="1">
          <mxGeometry relative="1" as="geometry" />
        </mxCell>
        <mxCell id="jk0r-prxaw-WUlgDrGdM-119" style="edgeStyle=orthogonalEdgeStyle;rounded=0;orthogonalLoop=1;jettySize=auto;html=1;exitX=1;exitY=0.5;exitDx=0;exitDy=0;entryX=0;entryY=0.5;entryDx=0;entryDy=0;endArrow=none;endFill=0;curved=1;fillColor=#d5e8d4;strokeColor=#82b366;" parent="1" source="jk0r-prxaw-WUlgDrGdM-21" target="jk0r-prxaw-WUlgDrGdM-33" edge="1">
          <mxGeometry relative="1" as="geometry" />
        </mxCell>
        <mxCell id="jk0r-prxaw-WUlgDrGdM-121" style="edgeStyle=orthogonalEdgeStyle;rounded=0;orthogonalLoop=1;jettySize=auto;html=1;exitX=1;exitY=0.5;exitDx=0;exitDy=0;entryX=0;entryY=0.5;entryDx=0;entryDy=0;endArrow=none;endFill=0;curved=1;fillColor=#d5e8d4;strokeColor=#82b366;" parent="1" source="jk0r-prxaw-WUlgDrGdM-21" target="jk0r-prxaw-WUlgDrGdM-34" edge="1">
          <mxGeometry relative="1" as="geometry" />
        </mxCell>
        <mxCell id="jk0r-prxaw-WUlgDrGdM-122" style="edgeStyle=orthogonalEdgeStyle;rounded=0;orthogonalLoop=1;jettySize=auto;html=1;exitX=1;exitY=0.5;exitDx=0;exitDy=0;entryX=0;entryY=0.5;entryDx=0;entryDy=0;endArrow=none;endFill=0;curved=1;fillColor=#d5e8d4;strokeColor=#82b366;" parent="1" source="jk0r-prxaw-WUlgDrGdM-21" target="jk0r-prxaw-WUlgDrGdM-35" edge="1">
          <mxGeometry relative="1" as="geometry" />
        </mxCell>
        <mxCell id="jk0r-prxaw-WUlgDrGdM-123" style="edgeStyle=orthogonalEdgeStyle;rounded=0;orthogonalLoop=1;jettySize=auto;html=1;exitX=1;exitY=0.5;exitDx=0;exitDy=0;entryX=0;entryY=0.5;entryDx=0;entryDy=0;endArrow=none;endFill=0;curved=1;fillColor=#d5e8d4;strokeColor=#82b366;" parent="1" source="jk0r-prxaw-WUlgDrGdM-21" target="jk0r-prxaw-WUlgDrGdM-36" edge="1">
          <mxGeometry relative="1" as="geometry" />
        </mxCell>
        <mxCell id="jk0r-prxaw-WUlgDrGdM-21" value="Plant" style="rounded=1;whiteSpace=wrap;html=1;fontSize=8;fillColor=#d5e8d4;strokeColor=#82b366;" parent="1" vertex="1">
          <mxGeometry x="-560" y="300" width="80" height="20" as="geometry" />
        </mxCell>
        <mxCell id="jk0r-prxaw-WUlgDrGdM-22" value="&lt;div style=&quot;font-size: 8px;&quot;&gt;Endangered&lt;/div&gt;&lt;div style=&quot;font-size: 8px;&quot;&gt;Plant&lt;br style=&quot;font-size: 8px;&quot;&gt;&lt;/div&gt;" style="rounded=1;whiteSpace=wrap;html=1;fontSize=8;fillColor=#d5e8d4;strokeColor=#82b366;" parent="1" vertex="1">
          <mxGeometry x="-440" y="300" width="80" height="20" as="geometry" />
        </mxCell>
        <mxCell id="jk0r-prxaw-WUlgDrGdM-23" value="Anthocerotophyta" style="rounded=1;whiteSpace=wrap;html=1;fontSize=8;fillColor=#d5e8d4;strokeColor=#82b366;" parent="1" vertex="1">
          <mxGeometry x="-440" y="330" width="80" height="20" as="geometry" />
        </mxCell>
        <mxCell id="jk0r-prxaw-WUlgDrGdM-24" value="Bryophyta" style="rounded=1;whiteSpace=wrap;html=1;fontSize=8;fillColor=#d5e8d4;strokeColor=#82b366;" parent="1" vertex="1">
          <mxGeometry x="-440" y="360" width="80" height="20" as="geometry" />
        </mxCell>
        <mxCell id="jk0r-prxaw-WUlgDrGdM-25" value="Charophyta" style="rounded=1;whiteSpace=wrap;html=1;fontSize=8;fillColor=#d5e8d4;strokeColor=#82b366;" parent="1" vertex="1">
          <mxGeometry x="-440" y="390" width="80" height="20" as="geometry" />
        </mxCell>
        <mxCell id="jk0r-prxaw-WUlgDrGdM-26" value="Cycadaophyta" style="rounded=1;whiteSpace=wrap;html=1;fontSize=8;fillColor=#d5e8d4;strokeColor=#82b366;" parent="1" vertex="1">
          <mxGeometry x="-440" y="420" width="80" height="20" as="geometry" />
        </mxCell>
        <mxCell id="jk0r-prxaw-WUlgDrGdM-27" value="Ginkgophyta" style="rounded=1;whiteSpace=wrap;html=1;fontSize=8;fillColor=#d5e8d4;strokeColor=#82b366;" parent="1" vertex="1">
          <mxGeometry x="-440" y="450" width="80" height="20" as="geometry" />
        </mxCell>
        <mxCell id="jk0r-prxaw-WUlgDrGdM-28" value="Glaucophyta" style="rounded=1;whiteSpace=wrap;html=1;fontSize=8;fillColor=#d5e8d4;strokeColor=#82b366;" parent="1" vertex="1">
          <mxGeometry x="-440" y="480" width="80" height="20" as="geometry" />
        </mxCell>
        <mxCell id="jk0r-prxaw-WUlgDrGdM-29" value="Gnetophyta" style="rounded=1;whiteSpace=wrap;html=1;fontSize=8;fillColor=#d5e8d4;strokeColor=#82b366;" parent="1" vertex="1">
          <mxGeometry x="-440" y="510" width="80" height="20" as="geometry" />
        </mxCell>
        <mxCell id="jk0r-prxaw-WUlgDrGdM-30" value="Lycopodiophyta" style="rounded=1;whiteSpace=wrap;html=1;fontSize=8;fillColor=#d5e8d4;strokeColor=#82b366;" parent="1" vertex="1">
          <mxGeometry x="-440" y="540" width="80" height="20" as="geometry" />
        </mxCell>
        <mxCell id="jk0r-prxaw-WUlgDrGdM-31" value="Magnoliophyta" style="rounded=1;whiteSpace=wrap;html=1;fontSize=8;fillColor=#d5e8d4;strokeColor=#82b366;" parent="1" vertex="1">
          <mxGeometry x="-440" y="570" width="80" height="20" as="geometry" />
        </mxCell>
        <mxCell id="jk0r-prxaw-WUlgDrGdM-32" value="Marchantiophyta" style="rounded=1;whiteSpace=wrap;html=1;fontSize=8;fillColor=#d5e8d4;strokeColor=#82b366;" parent="1" vertex="1">
          <mxGeometry x="-440" y="600" width="80" height="20" as="geometry" />
        </mxCell>
        <mxCell id="jk0r-prxaw-WUlgDrGdM-139" style="edgeStyle=orthogonalEdgeStyle;rounded=0;orthogonalLoop=1;jettySize=auto;html=1;exitX=1;exitY=0.5;exitDx=0;exitDy=0;entryX=0;entryY=0.5;entryDx=0;entryDy=0;endArrow=none;endFill=0;fillColor=#d5e8d4;strokeColor=#82b366;curved=1;" parent="1" source="jk0r-prxaw-WUlgDrGdM-33" target="jk0r-prxaw-WUlgDrGdM-69" edge="1">
          <mxGeometry relative="1" as="geometry" />
        </mxCell>
        <mxCell id="jk0r-prxaw-WUlgDrGdM-33" value="Pinophyta" style="rounded=1;whiteSpace=wrap;html=1;fontSize=8;fillColor=#d5e8d4;strokeColor=#82b366;" parent="1" vertex="1">
          <mxGeometry x="-440" y="630" width="80" height="20" as="geometry" />
        </mxCell>
        <mxCell id="jk0r-prxaw-WUlgDrGdM-34" value="Pteridophyta" style="rounded=1;whiteSpace=wrap;html=1;fontSize=8;fillColor=#d5e8d4;strokeColor=#82b366;" parent="1" vertex="1">
          <mxGeometry x="-440" y="660" width="80" height="20" as="geometry" />
        </mxCell>
        <mxCell id="jk0r-prxaw-WUlgDrGdM-35" value="Anthocerotophyta" style="rounded=1;whiteSpace=wrap;html=1;fontSize=8;fillColor=#d5e8d4;strokeColor=#82b366;" parent="1" vertex="1">
          <mxGeometry x="-440" y="690" width="80" height="20" as="geometry" />
        </mxCell>
        <mxCell id="jk0r-prxaw-WUlgDrGdM-36" value="Rhodophyta" style="rounded=1;whiteSpace=wrap;html=1;fontSize=8;fillColor=#d5e8d4;strokeColor=#82b366;" parent="1" vertex="1">
          <mxGeometry x="-440" y="720" width="80" height="20" as="geometry" />
        </mxCell>
        <mxCell id="jk0r-prxaw-WUlgDrGdM-155" style="edgeStyle=orthogonalEdgeStyle;rounded=0;orthogonalLoop=1;jettySize=auto;html=1;exitX=0;exitY=0.5;exitDx=0;exitDy=0;entryX=1;entryY=0.5;entryDx=0;entryDy=0;curved=1;endArrow=none;endFill=0;fillColor=#d5e8d4;strokeColor=#82b366;" parent="1" source="jk0r-prxaw-WUlgDrGdM-40" target="jk0r-prxaw-WUlgDrGdM-31" edge="1">
          <mxGeometry relative="1" as="geometry" />
        </mxCell>
        <mxCell id="jk0r-prxaw-WUlgDrGdM-40" value="Amaryllidaceae" style="rounded=1;whiteSpace=wrap;html=1;fontSize=8;fillColor=#d5e8d4;strokeColor=#82b366;" parent="1" vertex="1">
          <mxGeometry x="-320" width="80" height="20" as="geometry" />
        </mxCell>
        <mxCell id="jk0r-prxaw-WUlgDrGdM-157" style="edgeStyle=orthogonalEdgeStyle;rounded=0;orthogonalLoop=1;jettySize=auto;html=1;exitX=0;exitY=0.5;exitDx=0;exitDy=0;entryX=1;entryY=0.5;entryDx=0;entryDy=0;curved=1;endArrow=none;endFill=0;fillColor=#d5e8d4;strokeColor=#82b366;" parent="1" source="jk0r-prxaw-WUlgDrGdM-41" target="jk0r-prxaw-WUlgDrGdM-31" edge="1">
          <mxGeometry relative="1" as="geometry" />
        </mxCell>
        <mxCell id="jk0r-prxaw-WUlgDrGdM-41" value="Anacardiaceae" style="rounded=1;whiteSpace=wrap;html=1;fontSize=8;fillColor=#d5e8d4;strokeColor=#82b366;" parent="1" vertex="1">
          <mxGeometry x="-320" y="30" width="80" height="20" as="geometry" />
        </mxCell>
        <mxCell id="jk0r-prxaw-WUlgDrGdM-158" style="edgeStyle=orthogonalEdgeStyle;rounded=0;orthogonalLoop=1;jettySize=auto;html=1;exitX=0;exitY=0.5;exitDx=0;exitDy=0;entryX=1;entryY=0.5;entryDx=0;entryDy=0;curved=1;endArrow=none;endFill=0;fillColor=#d5e8d4;strokeColor=#82b366;" parent="1" source="jk0r-prxaw-WUlgDrGdM-42" target="jk0r-prxaw-WUlgDrGdM-31" edge="1">
          <mxGeometry relative="1" as="geometry" />
        </mxCell>
        <mxCell id="jk0r-prxaw-WUlgDrGdM-42" value="Asteraceae" style="rounded=1;whiteSpace=wrap;html=1;fontSize=8;fillColor=#d5e8d4;strokeColor=#82b366;" parent="1" vertex="1">
          <mxGeometry x="-320" y="60" width="80" height="20" as="geometry" />
        </mxCell>
        <mxCell id="jk0r-prxaw-WUlgDrGdM-159" style="edgeStyle=orthogonalEdgeStyle;rounded=0;orthogonalLoop=1;jettySize=auto;html=1;exitX=0;exitY=0.5;exitDx=0;exitDy=0;entryX=1;entryY=0.5;entryDx=0;entryDy=0;curved=1;endArrow=none;endFill=0;fillColor=#d5e8d4;strokeColor=#82b366;" parent="1" source="jk0r-prxaw-WUlgDrGdM-43" target="jk0r-prxaw-WUlgDrGdM-31" edge="1">
          <mxGeometry relative="1" as="geometry" />
        </mxCell>
        <mxCell id="jk0r-prxaw-WUlgDrGdM-43" value="Betulaceae" style="rounded=1;whiteSpace=wrap;html=1;fontSize=8;fillColor=#d5e8d4;strokeColor=#82b366;" parent="1" vertex="1">
          <mxGeometry x="-320" y="90" width="80" height="20" as="geometry" />
        </mxCell>
        <mxCell id="jk0r-prxaw-WUlgDrGdM-160" style="edgeStyle=orthogonalEdgeStyle;rounded=0;orthogonalLoop=1;jettySize=auto;html=1;exitX=0;exitY=0.5;exitDx=0;exitDy=0;entryX=1;entryY=0.5;entryDx=0;entryDy=0;curved=1;endArrow=none;endFill=0;fillColor=#d5e8d4;strokeColor=#82b366;" parent="1" source="jk0r-prxaw-WUlgDrGdM-44" target="jk0r-prxaw-WUlgDrGdM-31" edge="1">
          <mxGeometry relative="1" as="geometry" />
        </mxCell>
        <mxCell id="jk0r-prxaw-WUlgDrGdM-44" value="Buxaceae" style="rounded=1;whiteSpace=wrap;html=1;fontSize=8;fillColor=#d5e8d4;strokeColor=#82b366;" parent="1" vertex="1">
          <mxGeometry x="-320" y="120" width="80" height="20" as="geometry" />
        </mxCell>
        <mxCell id="jk0r-prxaw-WUlgDrGdM-161" style="edgeStyle=orthogonalEdgeStyle;rounded=0;orthogonalLoop=1;jettySize=auto;html=1;exitX=0;exitY=0.5;exitDx=0;exitDy=0;entryX=1;entryY=0.5;entryDx=0;entryDy=0;curved=1;endArrow=none;endFill=0;fillColor=#d5e8d4;strokeColor=#82b366;" parent="1" source="jk0r-prxaw-WUlgDrGdM-45" target="jk0r-prxaw-WUlgDrGdM-31" edge="1">
          <mxGeometry relative="1" as="geometry" />
        </mxCell>
        <mxCell id="jk0r-prxaw-WUlgDrGdM-45" value="Corylaceae" style="rounded=1;whiteSpace=wrap;html=1;fontSize=8;fillColor=#d5e8d4;strokeColor=#82b366;" parent="1" vertex="1">
          <mxGeometry x="-320" y="150" width="80" height="20" as="geometry" />
        </mxCell>
        <mxCell id="jk0r-prxaw-WUlgDrGdM-162" style="edgeStyle=orthogonalEdgeStyle;rounded=0;orthogonalLoop=1;jettySize=auto;html=1;exitX=0;exitY=0.5;exitDx=0;exitDy=0;entryX=1;entryY=0.5;entryDx=0;entryDy=0;curved=1;endArrow=none;endFill=0;fillColor=#d5e8d4;strokeColor=#82b366;" parent="1" source="jk0r-prxaw-WUlgDrGdM-46" target="jk0r-prxaw-WUlgDrGdM-31" edge="1">
          <mxGeometry relative="1" as="geometry" />
        </mxCell>
        <mxCell id="jk0r-prxaw-WUlgDrGdM-46" value="Fabaceae" style="rounded=1;whiteSpace=wrap;html=1;fontSize=8;fillColor=#d5e8d4;strokeColor=#82b366;" parent="1" vertex="1">
          <mxGeometry x="-320" y="180" width="80" height="20" as="geometry" />
        </mxCell>
        <mxCell id="jk0r-prxaw-WUlgDrGdM-163" style="edgeStyle=orthogonalEdgeStyle;rounded=0;orthogonalLoop=1;jettySize=auto;html=1;exitX=0;exitY=0.5;exitDx=0;exitDy=0;entryX=1;entryY=0.5;entryDx=0;entryDy=0;curved=1;endArrow=none;endFill=0;fillColor=#d5e8d4;strokeColor=#82b366;" parent="1" source="jk0r-prxaw-WUlgDrGdM-47" target="jk0r-prxaw-WUlgDrGdM-31" edge="1">
          <mxGeometry relative="1" as="geometry" />
        </mxCell>
        <mxCell id="jk0r-prxaw-WUlgDrGdM-47" value="Fagaceae" style="rounded=1;whiteSpace=wrap;html=1;fontSize=8;fillColor=#d5e8d4;strokeColor=#82b366;" parent="1" vertex="1">
          <mxGeometry x="-320" y="210" width="80" height="20" as="geometry" />
        </mxCell>
        <mxCell id="jk0r-prxaw-WUlgDrGdM-164" style="edgeStyle=orthogonalEdgeStyle;rounded=0;orthogonalLoop=1;jettySize=auto;html=1;exitX=0;exitY=0.5;exitDx=0;exitDy=0;entryX=1;entryY=0.5;entryDx=0;entryDy=0;curved=1;endArrow=none;endFill=0;fillColor=#d5e8d4;strokeColor=#82b366;" parent="1" source="jk0r-prxaw-WUlgDrGdM-48" target="jk0r-prxaw-WUlgDrGdM-31" edge="1">
          <mxGeometry relative="1" as="geometry" />
        </mxCell>
        <mxCell id="jk0r-prxaw-WUlgDrGdM-48" value="Juglandaceae" style="rounded=1;whiteSpace=wrap;html=1;fontSize=8;fillColor=#d5e8d4;strokeColor=#82b366;" parent="1" vertex="1">
          <mxGeometry x="-320" y="240" width="80" height="20" as="geometry" />
        </mxCell>
        <mxCell id="jk0r-prxaw-WUlgDrGdM-165" style="edgeStyle=orthogonalEdgeStyle;rounded=0;orthogonalLoop=1;jettySize=auto;html=1;exitX=0;exitY=0.5;exitDx=0;exitDy=0;entryX=1;entryY=0.5;entryDx=0;entryDy=0;curved=1;endArrow=none;endFill=0;fillColor=#d5e8d4;strokeColor=#82b366;" parent="1" source="jk0r-prxaw-WUlgDrGdM-49" target="jk0r-prxaw-WUlgDrGdM-31" edge="1">
          <mxGeometry relative="1" as="geometry" />
        </mxCell>
        <mxCell id="jk0r-prxaw-WUlgDrGdM-49" value="Moraceae" style="rounded=1;whiteSpace=wrap;html=1;fontSize=8;fillColor=#d5e8d4;strokeColor=#82b366;" parent="1" vertex="1">
          <mxGeometry x="-320" y="270" width="80" height="20" as="geometry" />
        </mxCell>
        <mxCell id="jk0r-prxaw-WUlgDrGdM-166" style="edgeStyle=orthogonalEdgeStyle;rounded=0;orthogonalLoop=1;jettySize=auto;html=1;exitX=0;exitY=0.5;exitDx=0;exitDy=0;entryX=1;entryY=0.5;entryDx=0;entryDy=0;curved=1;endArrow=none;endFill=0;fillColor=#d5e8d4;strokeColor=#82b366;" parent="1" source="jk0r-prxaw-WUlgDrGdM-50" target="jk0r-prxaw-WUlgDrGdM-31" edge="1">
          <mxGeometry relative="1" as="geometry" />
        </mxCell>
        <mxCell id="jk0r-prxaw-WUlgDrGdM-50" value="Myrtaceae" style="rounded=1;whiteSpace=wrap;html=1;fontSize=8;fillColor=#d5e8d4;strokeColor=#82b366;" parent="1" vertex="1">
          <mxGeometry x="-320" y="300" width="80" height="20" as="geometry" />
        </mxCell>
        <mxCell id="jk0r-prxaw-WUlgDrGdM-168" style="edgeStyle=orthogonalEdgeStyle;rounded=0;orthogonalLoop=1;jettySize=auto;html=1;exitX=0;exitY=0.5;exitDx=0;exitDy=0;entryX=1;entryY=0.5;entryDx=0;entryDy=0;curved=1;endArrow=none;endFill=0;fillColor=#d5e8d4;strokeColor=#82b366;" parent="1" source="jk0r-prxaw-WUlgDrGdM-51" target="jk0r-prxaw-WUlgDrGdM-31" edge="1">
          <mxGeometry relative="1" as="geometry" />
        </mxCell>
        <mxCell id="jk0r-prxaw-WUlgDrGdM-51" value="Poaceae" style="rounded=1;whiteSpace=wrap;html=1;fontSize=8;fillColor=#d5e8d4;strokeColor=#82b366;" parent="1" vertex="1">
          <mxGeometry x="-320" y="330" width="80" height="20" as="geometry" />
        </mxCell>
        <mxCell id="jk0r-prxaw-WUlgDrGdM-169" style="edgeStyle=orthogonalEdgeStyle;rounded=0;orthogonalLoop=1;jettySize=auto;html=1;exitX=0;exitY=0.5;exitDx=0;exitDy=0;entryX=1;entryY=0.5;entryDx=0;entryDy=0;curved=1;endArrow=none;endFill=0;fillColor=#d5e8d4;strokeColor=#82b366;" parent="1" source="jk0r-prxaw-WUlgDrGdM-52" target="jk0r-prxaw-WUlgDrGdM-31" edge="1">
          <mxGeometry relative="1" as="geometry" />
        </mxCell>
        <mxCell id="jk0r-prxaw-WUlgDrGdM-52" value="Rosaceae" style="rounded=1;whiteSpace=wrap;html=1;fontSize=8;fillColor=#d5e8d4;strokeColor=#82b366;" parent="1" vertex="1">
          <mxGeometry x="-320" y="360" width="80" height="20" as="geometry" />
        </mxCell>
        <mxCell id="jk0r-prxaw-WUlgDrGdM-170" style="edgeStyle=orthogonalEdgeStyle;rounded=0;orthogonalLoop=1;jettySize=auto;html=1;exitX=0;exitY=0.5;exitDx=0;exitDy=0;entryX=1;entryY=0.5;entryDx=0;entryDy=0;curved=1;endArrow=none;endFill=0;fillColor=#d5e8d4;strokeColor=#82b366;" parent="1" source="jk0r-prxaw-WUlgDrGdM-53" target="jk0r-prxaw-WUlgDrGdM-31" edge="1">
          <mxGeometry relative="1" as="geometry" />
        </mxCell>
        <mxCell id="jk0r-prxaw-WUlgDrGdM-53" value="Rutaceae" style="rounded=1;whiteSpace=wrap;html=1;fontSize=8;fillColor=#d5e8d4;strokeColor=#82b366;" parent="1" vertex="1">
          <mxGeometry x="-320" y="390" width="80" height="20" as="geometry" />
        </mxCell>
        <mxCell id="jk0r-prxaw-WUlgDrGdM-171" style="edgeStyle=orthogonalEdgeStyle;rounded=0;orthogonalLoop=1;jettySize=auto;html=1;exitX=0;exitY=0.5;exitDx=0;exitDy=0;entryX=1;entryY=0.5;entryDx=0;entryDy=0;curved=1;endArrow=none;endFill=0;fillColor=#d5e8d4;strokeColor=#82b366;" parent="1" source="jk0r-prxaw-WUlgDrGdM-54" target="jk0r-prxaw-WUlgDrGdM-31" edge="1">
          <mxGeometry relative="1" as="geometry" />
        </mxCell>
        <mxCell id="jk0r-prxaw-WUlgDrGdM-54" value="Saliceae" style="rounded=1;whiteSpace=wrap;html=1;fontSize=8;fillColor=#d5e8d4;strokeColor=#82b366;" parent="1" vertex="1">
          <mxGeometry x="-320" y="420" width="80" height="20" as="geometry" />
        </mxCell>
        <mxCell id="jk0r-prxaw-WUlgDrGdM-172" style="edgeStyle=orthogonalEdgeStyle;rounded=0;orthogonalLoop=1;jettySize=auto;html=1;exitX=0;exitY=0.5;exitDx=0;exitDy=0;entryX=1;entryY=0.5;entryDx=0;entryDy=0;curved=1;endArrow=none;endFill=0;fillColor=#d5e8d4;strokeColor=#82b366;" parent="1" source="jk0r-prxaw-WUlgDrGdM-55" target="jk0r-prxaw-WUlgDrGdM-31" edge="1">
          <mxGeometry relative="1" as="geometry" />
        </mxCell>
        <mxCell id="jk0r-prxaw-WUlgDrGdM-55" value="Sapindaceae" style="rounded=1;whiteSpace=wrap;html=1;fontSize=8;fillColor=#d5e8d4;strokeColor=#82b366;" parent="1" vertex="1">
          <mxGeometry x="-320" y="450" width="80" height="20" as="geometry" />
        </mxCell>
        <mxCell id="jk0r-prxaw-WUlgDrGdM-173" style="edgeStyle=orthogonalEdgeStyle;rounded=0;orthogonalLoop=1;jettySize=auto;html=1;exitX=0;exitY=0.5;exitDx=0;exitDy=0;entryX=1;entryY=0.5;entryDx=0;entryDy=0;curved=1;endArrow=none;endFill=0;fillColor=#d5e8d4;strokeColor=#82b366;" parent="1" source="jk0r-prxaw-WUlgDrGdM-56" target="jk0r-prxaw-WUlgDrGdM-31" edge="1">
          <mxGeometry relative="1" as="geometry" />
        </mxCell>
        <mxCell id="jk0r-prxaw-WUlgDrGdM-56" value="Solanaceae" style="rounded=1;whiteSpace=wrap;html=1;fontSize=8;fillColor=#d5e8d4;strokeColor=#82b366;" parent="1" vertex="1">
          <mxGeometry x="-320" y="480" width="80" height="20" as="geometry" />
        </mxCell>
        <mxCell id="jk0r-prxaw-WUlgDrGdM-174" style="edgeStyle=orthogonalEdgeStyle;rounded=0;orthogonalLoop=1;jettySize=auto;html=1;exitX=0;exitY=0.5;exitDx=0;exitDy=0;entryX=1;entryY=0.5;entryDx=0;entryDy=0;curved=1;endArrow=none;endFill=0;fillColor=#d5e8d4;strokeColor=#82b366;" parent="1" source="jk0r-prxaw-WUlgDrGdM-57" target="jk0r-prxaw-WUlgDrGdM-31" edge="1">
          <mxGeometry relative="1" as="geometry" />
        </mxCell>
        <mxCell id="jk0r-prxaw-WUlgDrGdM-57" value="Theaceae" style="rounded=1;whiteSpace=wrap;html=1;fontSize=8;fillColor=#d5e8d4;strokeColor=#82b366;" parent="1" vertex="1">
          <mxGeometry x="-320" y="510" width="80" height="20" as="geometry" />
        </mxCell>
        <mxCell id="jk0r-prxaw-WUlgDrGdM-175" style="edgeStyle=orthogonalEdgeStyle;rounded=0;orthogonalLoop=1;jettySize=auto;html=1;exitX=0;exitY=0.5;exitDx=0;exitDy=0;entryX=1;entryY=0.5;entryDx=0;entryDy=0;curved=1;endArrow=none;endFill=0;fillColor=#d5e8d4;strokeColor=#82b366;" parent="1" source="jk0r-prxaw-WUlgDrGdM-58" target="jk0r-prxaw-WUlgDrGdM-31" edge="1">
          <mxGeometry relative="1" as="geometry" />
        </mxCell>
        <mxCell id="jk0r-prxaw-WUlgDrGdM-58" value="Vitaceae" style="rounded=1;whiteSpace=wrap;html=1;fontSize=8;fillColor=#d5e8d4;strokeColor=#82b366;" parent="1" vertex="1">
          <mxGeometry x="-320" y="540" width="80" height="20" as="geometry" />
        </mxCell>
        <mxCell id="jk0r-prxaw-WUlgDrGdM-176" style="edgeStyle=orthogonalEdgeStyle;rounded=0;orthogonalLoop=1;jettySize=auto;html=1;exitX=0;exitY=0.5;exitDx=0;exitDy=0;entryX=1;entryY=0.5;entryDx=0;entryDy=0;curved=1;endArrow=none;endFill=0;fillColor=#d5e8d4;strokeColor=#82b366;" parent="1" source="jk0r-prxaw-WUlgDrGdM-59" target="jk0r-prxaw-WUlgDrGdM-31" edge="1">
          <mxGeometry relative="1" as="geometry" />
        </mxCell>
        <mxCell id="jk0r-prxaw-WUlgDrGdM-59" value="Saliceae" style="rounded=1;whiteSpace=wrap;html=1;fontSize=8;fillColor=#d5e8d4;strokeColor=#82b366;" parent="1" vertex="1">
          <mxGeometry x="-320" y="570" width="80" height="20" as="geometry" />
        </mxCell>
        <mxCell id="jk0r-prxaw-WUlgDrGdM-60" value="Bacteria" style="rounded=1;whiteSpace=wrap;html=1;fontSize=8;fillColor=#e1d5e7;strokeColor=#9673a6;" parent="1" vertex="1">
          <mxGeometry x="-440" width="80" height="20" as="geometry" />
        </mxCell>
        <mxCell id="jk0r-prxaw-WUlgDrGdM-61" value="Deadly&lt;br style=&quot;font-size: 8px;&quot;&gt;&lt;div style=&quot;font-size: 8px;&quot;&gt;Pathogen&lt;/div&gt;" style="rounded=1;whiteSpace=wrap;html=1;fontSize=8;fillColor=#e1d5e7;strokeColor=#9673a6;" parent="1" vertex="1">
          <mxGeometry x="-440" y="30" width="80" height="20" as="geometry" />
        </mxCell>
        <mxCell id="jk0r-prxaw-WUlgDrGdM-62" value="Fungi" style="rounded=1;whiteSpace=wrap;html=1;fontSize=8;fillColor=#e1d5e7;strokeColor=#9673a6;" parent="1" vertex="1">
          <mxGeometry x="-440" y="60" width="80" height="20" as="geometry" />
        </mxCell>
        <mxCell id="jk0r-prxaw-WUlgDrGdM-63" value="&lt;div style=&quot;font-size: 8px;&quot;&gt;Highly Infective&lt;/div&gt;&lt;div style=&quot;font-size: 8px;&quot;&gt;Pathogen&lt;br style=&quot;font-size: 8px;&quot;&gt;&lt;/div&gt;" style="rounded=1;whiteSpace=wrap;html=1;fontSize=8;fillColor=#e1d5e7;strokeColor=#9673a6;" parent="1" vertex="1">
          <mxGeometry x="-440" y="90" width="80" height="20" as="geometry" />
        </mxCell>
        <mxCell id="jk0r-prxaw-WUlgDrGdM-64" value="&lt;div style=&quot;font-size: 8px;&quot;&gt;Highly Specific&lt;/div&gt;&lt;div style=&quot;font-size: 8px;&quot;&gt;Pathogen&lt;br style=&quot;font-size: 8px;&quot;&gt;&lt;/div&gt;" style="rounded=1;whiteSpace=wrap;html=1;fontSize=8;fillColor=#e1d5e7;strokeColor=#9673a6;" parent="1" vertex="1">
          <mxGeometry x="-440" y="120" width="80" height="20" as="geometry" />
        </mxCell>
        <mxCell id="jk0r-prxaw-WUlgDrGdM-65" value="Insect" style="rounded=1;whiteSpace=wrap;html=1;fontSize=8;fillColor=#e1d5e7;strokeColor=#9673a6;" parent="1" vertex="1">
          <mxGeometry x="-440" y="150" width="80" height="20" as="geometry" />
        </mxCell>
        <mxCell id="jk0r-prxaw-WUlgDrGdM-66" value="Nematoda" style="rounded=1;whiteSpace=wrap;html=1;fontSize=8;fillColor=#e1d5e7;strokeColor=#9673a6;" parent="1" vertex="1">
          <mxGeometry x="-440" y="180" width="80" height="20" as="geometry" />
        </mxCell>
        <mxCell id="jk0r-prxaw-WUlgDrGdM-67" value="Oomycota" style="rounded=1;whiteSpace=wrap;html=1;fontSize=8;fillColor=#e1d5e7;strokeColor=#9673a6;" parent="1" vertex="1">
          <mxGeometry x="-440" y="210" width="80" height="20" as="geometry" />
        </mxCell>
        <mxCell id="jk0r-prxaw-WUlgDrGdM-68" value="Virus" style="rounded=1;whiteSpace=wrap;html=1;fontSize=8;fillColor=#e1d5e7;strokeColor=#9673a6;" parent="1" vertex="1">
          <mxGeometry x="-440" y="240" width="80" height="20" as="geometry" />
        </mxCell>
        <mxCell id="jk0r-prxaw-WUlgDrGdM-69" value="Pinaceae" style="rounded=1;whiteSpace=wrap;html=1;fontSize=8;fillColor=#d5e8d4;strokeColor=#82b366;" parent="1" vertex="1">
          <mxGeometry x="-320" y="630" width="80" height="20" as="geometry" />
        </mxCell>
        <mxCell id="jk0r-prxaw-WUlgDrGdM-71" value="&lt;div style=&quot;font-size: 8px;&quot;&gt;Common&lt;/div&gt;&lt;div style=&quot;font-size: 8px;&quot;&gt;Symptoms&lt;br style=&quot;font-size: 8px;&quot;&gt;&lt;/div&gt;" style="rounded=1;whiteSpace=wrap;html=1;fontSize=8;fillColor=#fff2cc;strokeColor=#d6b656;" parent="1" vertex="1">
          <mxGeometry x="-560" y="400" width="80" height="20" as="geometry" />
        </mxCell>
        <mxCell id="jk0r-prxaw-WUlgDrGdM-72" value="&lt;div style=&quot;font-size: 8px;&quot;&gt;Subnational&lt;/div&gt;&lt;div style=&quot;font-size: 8px;&quot;&gt;Territories&lt;br style=&quot;font-size: 8px;&quot;&gt;&lt;/div&gt;" style="rounded=1;whiteSpace=wrap;html=1;fontSize=8;fillColor=#fff2cc;strokeColor=#d6b656;" parent="1" vertex="1">
          <mxGeometry x="-560" y="430" width="80" height="20" as="geometry" />
        </mxCell>
        <mxCell id="jk0r-prxaw-WUlgDrGdM-73" value="Abscission" style="rounded=1;whiteSpace=wrap;html=1;fontSize=8;fillColor=#ffe6cc;strokeColor=#d79b00;" parent="1" vertex="1">
          <mxGeometry x="-560" y="540" width="80" height="20" as="geometry" />
        </mxCell>
        <mxCell id="jk0r-prxaw-WUlgDrGdM-74" value="Bleach" style="rounded=1;whiteSpace=wrap;html=1;fontSize=8;fillColor=#ffe6cc;strokeColor=#d79b00;" parent="1" vertex="1">
          <mxGeometry x="-560" y="570" width="80" height="20" as="geometry" />
        </mxCell>
        <mxCell id="jk0r-prxaw-WUlgDrGdM-75" value="Blight" style="rounded=1;whiteSpace=wrap;html=1;fontSize=8;fillColor=#ffe6cc;strokeColor=#d79b00;" parent="1" vertex="1">
          <mxGeometry x="-560" y="600" width="80" height="20" as="geometry" />
        </mxCell>
        <mxCell id="jk0r-prxaw-WUlgDrGdM-76" value="Blotch" style="rounded=1;whiteSpace=wrap;html=1;fontSize=8;fillColor=#ffe6cc;strokeColor=#d79b00;" parent="1" vertex="1">
          <mxGeometry x="-560" y="630" width="80" height="20" as="geometry" />
        </mxCell>
        <mxCell id="jk0r-prxaw-WUlgDrGdM-77" value="Bore" style="rounded=1;whiteSpace=wrap;html=1;fontSize=8;fillColor=#ffe6cc;strokeColor=#d79b00;" parent="1" vertex="1">
          <mxGeometry x="-560" y="660" width="80" height="20" as="geometry" />
        </mxCell>
        <mxCell id="jk0r-prxaw-WUlgDrGdM-78" value="Canker" style="rounded=1;whiteSpace=wrap;html=1;fontSize=8;fillColor=#ffe6cc;strokeColor=#d79b00;" parent="1" vertex="1">
          <mxGeometry x="-560" y="690" width="80" height="20" as="geometry" />
        </mxCell>
        <mxCell id="jk0r-prxaw-WUlgDrGdM-79" value="Death" style="rounded=1;whiteSpace=wrap;html=1;fontSize=8;fillColor=#ffe6cc;strokeColor=#d79b00;" parent="1" vertex="1">
          <mxGeometry x="-560" y="720" width="80" height="20" as="geometry" />
        </mxCell>
        <mxCell id="jk0r-prxaw-WUlgDrGdM-80" value="&lt;div style=&quot;font-size: 8px;&quot;&gt;Developmental&lt;/div&gt;&lt;div style=&quot;font-size: 8px;&quot;&gt;Issue&lt;br style=&quot;font-size: 8px;&quot;&gt;&lt;/div&gt;" style="rounded=1;whiteSpace=wrap;html=1;fontSize=8;fillColor=#ffe6cc;strokeColor=#d79b00;" parent="1" vertex="1">
          <mxGeometry x="-560" y="750" width="80" height="20" as="geometry" />
        </mxCell>
        <mxCell id="jk0r-prxaw-WUlgDrGdM-81" value="Frass" style="rounded=1;whiteSpace=wrap;html=1;fontSize=8;fillColor=#ffe6cc;strokeColor=#d79b00;" parent="1" vertex="1">
          <mxGeometry x="-560" y="780" width="80" height="20" as="geometry" />
        </mxCell>
        <mxCell id="jk0r-prxaw-WUlgDrGdM-83" value="Gall" style="rounded=1;whiteSpace=wrap;html=1;fontSize=8;fillColor=#ffe6cc;strokeColor=#d79b00;" parent="1" vertex="1">
          <mxGeometry x="-560" y="810" width="80" height="20" as="geometry" />
        </mxCell>
        <mxCell id="jk0r-prxaw-WUlgDrGdM-84" value="Lesion" style="rounded=1;whiteSpace=wrap;html=1;fontSize=8;fillColor=#ffe6cc;strokeColor=#d79b00;" parent="1" vertex="1">
          <mxGeometry x="-560" y="840" width="80" height="20" as="geometry" />
        </mxCell>
        <mxCell id="jk0r-prxaw-WUlgDrGdM-85" value="Rot" style="rounded=1;whiteSpace=wrap;html=1;fontSize=8;fillColor=#ffe6cc;strokeColor=#d79b00;" parent="1" vertex="1">
          <mxGeometry x="-560" y="870" width="80" height="20" as="geometry" />
        </mxCell>
        <mxCell id="jk0r-prxaw-WUlgDrGdM-86" value="Rust" style="rounded=1;whiteSpace=wrap;html=1;fontSize=8;fillColor=#ffe6cc;strokeColor=#d79b00;" parent="1" vertex="1">
          <mxGeometry x="-560" y="900" width="80" height="20" as="geometry" />
        </mxCell>
        <mxCell id="jk0r-prxaw-WUlgDrGdM-87" value="Secretion" style="rounded=1;whiteSpace=wrap;html=1;fontSize=8;fillColor=#ffe6cc;strokeColor=#d79b00;" parent="1" vertex="1">
          <mxGeometry x="-560" y="930" width="80" height="20" as="geometry" />
        </mxCell>
        <mxCell id="jk0r-prxaw-WUlgDrGdM-88" value="Streak" style="rounded=1;whiteSpace=wrap;html=1;fontSize=8;fillColor=#ffe6cc;strokeColor=#d79b00;" parent="1" vertex="1">
          <mxGeometry x="-560" y="960" width="80" height="20" as="geometry" />
        </mxCell>
        <mxCell id="jk0r-prxaw-WUlgDrGdM-89" value="Nation" style="rounded=1;whiteSpace=wrap;html=1;fontSize=8;fillColor=#f8cecc;strokeColor=#b85450;" parent="1" vertex="1">
          <mxGeometry x="-560" y="1070" width="80" height="20" as="geometry" />
        </mxCell>
        <mxCell id="jk0r-prxaw-WUlgDrGdM-90" value="&lt;div style=&quot;font-size: 8px;&quot;&gt;Subnational&lt;/div&gt;&lt;div style=&quot;font-size: 8px;&quot;&gt;Territory&lt;br style=&quot;font-size: 8px;&quot;&gt;&lt;/div&gt;" style="rounded=1;whiteSpace=wrap;html=1;fontSize=8;fillColor=#f8cecc;strokeColor=#b85450;" parent="1" vertex="1">
          <mxGeometry x="-560" y="1100" width="80" height="20" as="geometry" />
        </mxCell>
        <mxCell id="jk0r-prxaw-WUlgDrGdM-137" value="&lt;div&gt;Pathogen&lt;/div&gt;&lt;div&gt;Presence&lt;/div&gt;" style="rounded=1;whiteSpace=wrap;html=1;fontSize=8;fillColor=#f5f5f5;fontColor=#333333;strokeColor=#666666;" parent="1" vertex="1">
          <mxGeometry x="-560" y="1010" width="80" height="20" as="geometry" />
        </mxCell>
      </root>
    </mxGraphModel>
  </diagram>
</mxfile>
